<?xml version="1.0" encoding="UTF-8" standalone="no"?>
<!DOCTYPE svg PUBLIC "-//W3C//DTD SVG 1.1//EN"
 "http://www.w3.org/Graphics/SVG/1.1/DTD/svg11.dtd">
<!-- Generated by graphviz version 2.40.1 (20161225.0304)
 -->
<!-- Title: tree Pages: 1 -->
<svg width="294pt" height="272pt"
 viewBox="0.00 0.00 294.50 271.99" xmlns="http://www.w3.org/2000/svg" xmlns:xlink="http://www.w3.org/1999/xlink">
<g id="graph0" class="graph" transform="scale(1 1) rotate(0) translate(4 267.9862)">
<title>tree</title>
<polygon fill="#ffffff" stroke="transparent" points="-4,4 -4,-267.9862 290.4983,-267.9862 290.4983,4 -4,4"/>
<!-- 10 -->
<g id="node1" class="node">
<title>10</title>
<ellipse fill="none" stroke="#000000" cx="103.4983" cy="-244.4879" rx="19.4965" ry="19.4965"/>
<text text-anchor="middle" x="103.4983" y="-240.7879" font-family="Times,serif" font-size="14.00" fill="#000000">10</text>
</g>
<!-- 14 -->
<g id="node2" class="node">
<title>14</title>
<ellipse fill="none" stroke="#000000" cx="47.4983" cy="-169.4913" rx="19.4965" ry="19.4965"/>
<text text-anchor="middle" x="47.4983" y="-165.7913" font-family="Times,serif" font-size="14.00" fill="#000000">14</text>
</g>
<!-- 10&#45;&gt;14 -->
<g id="edge1" class="edge">
<title>10&#45;&gt;14</title>
<path fill="none" stroke="#000000" d="M91.6221,-228.5831C83.9979,-218.3726 73.9543,-204.9219 65.3756,-193.4331"/>
<polygon fill="#000000" stroke="#000000" points="67.9528,-191.0347 59.1653,-185.1161 62.344,-195.2229 67.9528,-191.0347"/>
</g>
<!-- 1 -->
<g id="node8" class="node">
<title>1</title>
<ellipse fill="none" stroke="#000000" cx="240.4983" cy="-169.4913" rx="18" ry="18"/>
<text text-anchor="middle" x="240.4983" y="-165.7913" font-family="Times,serif" font-size="14.00" fill="#000000">1</text>
</g>
<!-- 10&#45;&gt;1 -->
<g id="edge7" class="edge">
<title>10&#45;&gt;1</title>
<path fill="none" stroke="#000000" d="M120.8494,-234.9895C144.809,-221.8735 188.1656,-198.1393 215.5848,-183.1295"/>
<polygon fill="#000000" stroke="#000000" points="217.4697,-186.0878 224.5607,-178.2159 214.1084,-179.9476 217.4697,-186.0878"/>
</g>
<!-- 12 -->
<g id="node3" class="node">
<title>12</title>
<ellipse fill="none" stroke="#000000" cx="19.4983" cy="-94.4948" rx="19.4965" ry="19.4965"/>
<text text-anchor="middle" x="19.4983" y="-90.7948" font-family="Times,serif" font-size="14.00" fill="#000000">12</text>
</g>
<!-- 14&#45;&gt;12 -->
<g id="edge2" class="edge">
<title>14&#45;&gt;12</title>
<path fill="none" stroke="#000000" d="M40.5769,-150.9529C37.3557,-142.3251 33.4561,-131.88 29.8912,-122.3318"/>
<polygon fill="#000000" stroke="#000000" points="33.1167,-120.9642 26.34,-112.82 26.5588,-123.4126 33.1167,-120.9642"/>
</g>
<!-- 6 -->
<g id="node4" class="node">
<title>6</title>
<ellipse fill="none" stroke="#000000" cx="74.4983" cy="-94.4948" rx="18" ry="18"/>
<text text-anchor="middle" x="74.4983" y="-90.7948" font-family="Times,serif" font-size="14.00" fill="#000000">6</text>
</g>
<!-- 14&#45;&gt;6 -->
<g id="edge3" class="edge">
<title>14&#45;&gt;6</title>
<path fill="none" stroke="#000000" d="M54.1724,-150.9529C57.4284,-141.9089 61.4032,-130.8682 64.9715,-120.9568"/>
<polygon fill="#000000" stroke="#000000" points="68.2683,-122.132 68.3626,-111.5376 61.6821,-119.7608 68.2683,-122.132"/>
</g>
<!-- 5 -->
<g id="node5" class="node">
<title>5</title>
<ellipse fill="none" stroke="#000000" cx="20.4983" cy="-19.4983" rx="18" ry="18"/>
<text text-anchor="middle" x="20.4983" y="-15.7983" font-family="Times,serif" font-size="14.00" fill="#000000">5</text>
</g>
<!-- 6&#45;&gt;5 -->
<g id="edge4" class="edge">
<title>6&#45;&gt;5</title>
<path fill="none" stroke="#000000" d="M63.8296,-79.6779C56.2117,-69.0979 45.8154,-54.6593 37.1157,-42.577"/>
<polygon fill="#000000" stroke="#000000" points="39.8284,-40.3545 31.1448,-34.2844 34.1477,-44.4448 39.8284,-40.3545"/>
</g>
<!-- 7 -->
<!-- 6&#45;&gt;7 -->
<!-- 22 -->
<g id="node7" class="node">
<title>22</title>
<ellipse fill="none" stroke="#000000" cx="129.4983" cy="-19.4983" rx="19.4965" ry="19.4965"/>
<text text-anchor="middle" x="129.4983" y="-15.7983" font-family="Times,serif" font-size="14.00" fill="#000000">22</text>
</g>
<!-- 6&#45;&gt;22 -->
<g id="edge6" class="edge">
<title>6&#45;&gt;22</title>
<path fill="none" stroke="#000000" d="M85.3645,-79.6779C92.922,-69.3727 103.1641,-55.4068 111.8792,-43.5231"/>
<polygon fill="#000000" stroke="#000000" points="114.8036,-45.4538 117.8951,-35.3201 109.1589,-41.3141 114.8036,-45.4538"/>
</g>
<!-- 15 -->
<g id="node9" class="node">
<title>15</title>
<ellipse fill="none" stroke="#000000" cx="213.4983" cy="-94.4948" rx="19.4965" ry="19.4965"/>
<text text-anchor="middle" x="213.4983" y="-90.7948" font-family="Times,serif" font-size="14.00" fill="#000000">15</text>
</g>
<!-- 1&#45;&gt;15 -->
<g id="edge8" class="edge">
<title>1&#45;&gt;15</title>
<path fill="none" stroke="#000000" d="M234.3716,-152.4735C231.1975,-143.6572 227.2391,-132.6621 223.6253,-122.6241"/>
<polygon fill="#000000" stroke="#000000" points="226.8486,-121.2445 220.1681,-113.0213 220.2624,-123.6157 226.8486,-121.2445"/>
</g>
<!-- 3 -->
<g id="node12" class="node">
<title>3</title>
<ellipse fill="none" stroke="#000000" cx="268.4983" cy="-94.4948" rx="18" ry="18"/>
<text text-anchor="middle" x="268.4983" y="-90.7948" font-family="Times,serif" font-size="14.00" fill="#000000">3</text>
</g>
<!-- 1&#45;&gt;3 -->
<g id="edge11" class="edge">
<title>1&#45;&gt;3</title>
<path fill="none" stroke="#000000" d="M246.8519,-152.4735C250.3245,-143.1724 254.7024,-131.4462 258.611,-120.9772"/>
<polygon fill="#000000" stroke="#000000" points="261.951,-122.0379 262.1698,-111.4453 255.3931,-119.5895 261.951,-122.0379"/>
</g>
<!-- 16 -->
<!-- 15&#45;&gt;16 -->
<!-- 4 -->
<g id="node11" class="node">
<title>4</title>
<ellipse fill="none" stroke="#000000" cx="241.4983" cy="-19.4983" rx="18" ry="18"/>
<text text-anchor="middle" x="241.4983" y="-15.7983" font-family="Times,serif" font-size="14.00" fill="#000000">4</text>
</g>
<!-- 15&#45;&gt;4 -->
<g id="edge10" class="edge">
<title>15&#45;&gt;4</title>
<path fill="none" stroke="#000000" d="M220.4196,-75.9563C223.7962,-66.9124 227.9182,-55.8717 231.6187,-45.9603"/>
<polygon fill="#000000" stroke="#000000" points="234.9165,-47.1336 235.1353,-36.5411 228.3587,-44.6852 234.9165,-47.1336"/>
</g>
</g>
</svg>
